<?xml version="1.0" encoding="utf-8"?>
<!-- Generator: Adobe Illustrator 25.2.2, SVG Export Plug-In . SVG Version: 6.00 Build 0)  -->
<svg version="1.1" id="Layer_1" xmlns="http://www.w3.org/2000/svg" xmlns:xlink="http://www.w3.org/1999/xlink" x="0px" y="0px"
	 viewBox="0 0 141.4 25.3" style="enable-background:new 0 0 141.4 25.3;" xml:space="preserve">
<style type="text/css">
	.st0{fill:#8A2BE2;}
</style>
<g>
	<g>
		<path d="M15.4,13.1C14,13.3,14,13.4,14,14.7v1.9c0,0.8,0,1.5,0.2,2.1c-1.4,0.3-3.2,0.8-5,0.8c-4.9,0-8.2-3.1-8.2-7.5
			c0-5.2,4.1-7.7,8.5-7.7c1.9,0,3.6,0.5,4.3,0.6c0.1,0.8,0.2,2,0.4,3.5l-0.6,0.1c-0.5-2.7-2.2-3.5-4.3-3.5c-3.4,0-5.9,2.5-5.9,6.6
			c0,3.2,1.9,7,6.2,7c0.8,0,1.4-0.2,1.9-0.4c0.4-0.2,0.7-0.5,0.7-1.4V15c0-1.6-0.2-1.7-2.3-1.9v-0.6h5.7V13.1z"/>
		<path d="M26.7,8.1c-0.2-0.9-0.3-1.3-0.6-1.8c-0.4-0.6-0.8-0.8-2.5-0.8h-1.7c-0.6,0-0.7,0-0.7,0.7v5.3h2.3c2,0,2.1-0.2,2.4-1.6h0.6
			v4.3h-0.6c-0.3-1.5-0.4-1.8-2.4-1.8h-2.3v4c0,1.9,0.2,2.1,2.2,2.2v0.6h-6.1v-0.6c1.8-0.1,2-0.3,2-2.2V7.5c0-1.9-0.2-2.1-1.9-2.2
			V4.7h9.8c0,0.8,0.1,2.2,0.2,3.3L26.7,8.1z"/>
		<path d="M36.4,19.2v-0.6c1.4-0.2,1.6-0.4,1.3-1.2s-0.7-2.1-1.2-3.4h-4.7c-0.4,1-0.7,1.9-1,2.9c-0.5,1.4-0.3,1.6,1.4,1.8v0.6h-4.8
			v-0.6c1.4-0.2,1.7-0.3,2.5-2.3l4.6-11.7l0.7-0.2c1.4,3.8,2.9,8.1,4.3,11.9c0.7,1.9,1,2.1,2.5,2.3v0.6H36.4z M34.2,7.3L34.2,7.3
			c-0.8,1.9-1.5,3.9-2.1,5.7h4.1L34.2,7.3z"/>
		<path d="M64.5,15.7c-0.1,0.7-0.6,2.8-0.8,3.5H53v-0.6c2-0.2,2.2-0.3,2.2-2.1V7.6c0-2-0.2-2.1-1.9-2.2V4.7h9.9
			c0,0.6,0.1,2.1,0.2,3.2L62.8,8c-0.2-0.9-0.4-1.4-0.7-1.9c-0.3-0.5-0.9-0.6-2.5-0.6h-1.7c-0.7,0-0.7,0-0.7,0.7v5.1h2.1
			c2,0,2.1-0.2,2.4-1.7h0.6v4.3h-0.6c-0.3-1.6-0.4-1.7-2.4-1.7h-2.1v4.2c0,1,0.1,1.5,0.5,1.8c0.4,0.3,1.2,0.3,2.3,0.3
			c1.7,0,2.3-0.2,2.8-0.8c0.4-0.4,0.8-1.2,1.1-2.1L64.5,15.7z"/>
		<path d="M71.4,19.2v-0.6c1-0.1,1.1-0.3,0.8-0.9l-1.6-2.6c-0.5,0.7-1,1.6-1.4,2.4c-0.4,0.8-0.4,1,0.8,1.1v0.6h-4.2v-0.6
			c1.4-0.2,1.6-0.4,2.5-1.5c0.6-0.8,1.2-1.7,1.9-2.7l-1.9-3c-0.7-1.1-1-1.3-2.2-1.4V9.5h4.5V10c-1,0.1-1,0.3-0.6,1l1.3,2.1
			c0.4-0.6,0.9-1.3,1.3-2.1c0.4-0.7,0.2-0.8-0.7-0.9V9.5h4.1V10c-1.4,0.2-1.6,0.3-2.5,1.2c-0.4,0.6-1,1.4-1.7,2.5l2.2,3.3
			c0.8,1.3,1.1,1.5,2.5,1.6v0.6H71.4z"/>
		<path d="M85.5,17.2c-1,1.3-2.5,2.3-3.8,2.3c-2.8,0-4.5-2.3-4.5-4.7c0-1.7,0.7-3.2,2.2-4.4c1.2-0.9,2.5-1.2,3.4-1.2
			c0.9,0,1.6,0.3,2,0.6c0.3,0.2,0.4,0.4,0.4,0.7c0,0.5-0.5,1-0.7,1c-0.1,0-0.2-0.1-0.4-0.2c-0.7-0.6-1.4-0.9-2.2-0.9
			c-1.5,0-2.8,1.2-2.8,3.6c0,3.1,2.1,4.1,3.4,4.1c1,0,1.7-0.3,2.7-1.2L85.5,17.2z"/>
		<path d="M92.8,19.2v-0.6c1.3-0.1,1.5-0.3,1.5-1.7v-3.7c0-1.8-0.7-2.7-2.2-2.7c-0.8,0-1.7,0.4-2.3,1.1v5.3c0,1.4,0.1,1.6,1.4,1.7
			v0.6h-4.7v-0.6c1.3-0.1,1.5-0.2,1.5-1.7V6.3c0-1.4,0-1.5-1.5-1.6V4.1c1.1-0.2,2.4-0.5,3.3-0.8v7.5c0.8-0.8,2-1.6,3.2-1.6
			c1.8,0,3.1,1.1,3.1,3.8v3.9c0,1.5,0.2,1.6,1.5,1.7v0.6H92.8z"/>
		<path d="M106.1,19.5c-0.3,0-0.8-0.2-1-0.4c-0.3-0.3-0.4-0.6-0.5-1c-0.9,0.6-2,1.4-2.6,1.4c-1.6,0-2.7-1.3-2.7-2.7
			c0-1.1,0.6-1.8,1.8-2.2c1.3-0.4,3-1,3.5-1.4v-0.4c0-1.6-0.8-2.5-1.9-2.5c-0.4,0-0.8,0.2-1,0.4c-0.3,0.3-0.5,0.8-0.7,1.5
			c-0.1,0.4-0.3,0.5-0.6,0.5c-0.4,0-1-0.4-1-1c0-0.3,0.3-0.6,0.7-0.9c0.6-0.4,2.1-1.3,3.3-1.6c0.7,0,1.3,0.2,1.8,0.6
			c0.8,0.6,1,1.6,1,2.7v4.1c0,1,0.4,1.3,0.8,1.3c0.3,0,0.6-0.1,0.8-0.2l0.2,0.6L106.1,19.5z M104.5,13.9c-0.5,0.2-1.5,0.7-2,0.9
			c-0.9,0.4-1.4,0.8-1.4,1.6c0,1.2,0.9,1.7,1.6,1.7c0.6,0,1.4-0.4,1.8-0.8V13.9z"/>
		<path d="M115.4,19.2v-0.6c1.3-0.1,1.5-0.3,1.5-1.9v-3.7c0-1.5-0.5-2.5-2-2.5c-0.9,0-1.8,0.6-2.4,1.1v5.2c0,1.5,0.1,1.6,1.4,1.7
			v0.6h-4.8v-0.6c1.5-0.2,1.6-0.3,1.6-1.7v-4.6c0-1.4-0.1-1.5-1.3-1.7v-0.5c1.1-0.2,2.1-0.5,3.1-0.9v1.8c0.4-0.3,0.9-0.7,1.5-1
			c0.6-0.4,1.2-0.7,1.9-0.7c1.8,0,2.9,1.2,2.9,3.4v4.3c0,1.5,0.1,1.6,1.4,1.7v0.6H115.4z"/>
		<path d="M131.3,9.6c-0.2,0.4-0.6,0.9-1,1.1l-1.3-0.1c0.4,0.5,0.7,1.2,0.7,2c0,2.4-2,3.6-3.9,3.6c-0.4,0-0.8-0.1-1.1-0.1
			c-0.3,0.2-0.7,0.6-0.7,0.9c0,0.4,0.4,0.9,1.4,0.9c0.8,0,1.6,0,2.3,0c1.4,0,3.2,0.4,3.2,2.6c0,2.3-2.6,4.4-5.6,4.4
			c-2.5,0-3.8-1.4-3.9-2.7c0-0.5,0.2-0.9,0.5-1.2c0.4-0.4,1.3-1.2,1.9-1.6c-0.8-0.2-1.4-0.8-1.6-1.2c-0.2-0.3-0.3-0.7-0.2-0.9
			c0.9-0.3,1.6-0.9,2-1.4c-1-0.4-2-1.5-2-3c0-2.5,2.3-3.7,4-3.7c0.8,0,1.5,0.2,2.1,0.6c1.1,0,2.2-0.2,3-0.3L131.3,9.6z M124.3,20
			c-0.6,0.5-1,1.1-1,1.7c0,1.2,1.3,2.1,2.9,2.1c2.1,0,3.2-1.1,3.2-2.5c0-0.8-0.4-1.3-1-1.6c-0.6-0.2-1.2-0.3-2.1-0.3
			C125.2,19.5,124.7,19.6,124.3,20z M123.9,12.6c0,1.7,0.8,3,2.1,3c1,0,1.9-0.9,1.9-2.7s-0.8-3-2.1-3
			C124.8,9.9,123.9,10.8,123.9,12.6z"/>
		<path d="M140.4,17.3c-1.4,1.8-2.9,2.2-3.6,2.2c-2.7,0-4.3-2.2-4.3-4.7c0-1.5,0.6-2.9,1.5-3.9c0.9-1,2.1-1.6,3.3-1.6
			c1.9,0,3.3,1.6,3.3,3.4c0,0.4-0.1,0.6-0.5,0.7c-0.4,0.1-3.2,0.3-5.8,0.4c0,3,1.8,4.3,3.3,4.3c0.9,0,1.7-0.4,2.5-1.1L140.4,17.3z
			 M134.3,12.8c1.2,0,2.5,0,3.8-0.1c0.4,0,0.5-0.1,0.5-0.4c0-1.2-0.7-2.2-2-2.2C135.6,10,134.6,11,134.3,12.8z"/>
	</g>
	<path class="st0" d="M47.3,0.3c0.2,1,0.3,1.9,0.4,2.9l0,2.9v5.7v5.7v2.9c-0.1,1-0.2,1.9-0.4,2.9c-0.2-1-0.3-1.9-0.4-2.9v-2.9v-5.7
		V6.1l0-2.9C47,2.3,47.1,1.3,47.3,0.3z"/>
</g>
</svg>
